<?xml version="1.0" encoding="utf-8"?>
<!-- Generator: Adobe Illustrator 18.1.0, SVG Export Plug-In . SVG Version: 6.00 Build 0)  -->
<svg version="1.1" id="Layer_1" xmlns="http://www.w3.org/2000/svg" xmlns:xlink="http://www.w3.org/1999/xlink" x="0px" y="0px"
	 viewBox="0 0 864 864" enable-background="new 0 0 864 864" xml:space="preserve">
<rect x="-3.7" y="-3.7" width="871.4" height="871.4"/>
<g id="XMLID_1_">
	<g>
		<path d="M482.9,381V483H381.1V381H482.9z M457.5,457.5v-51h-50.9v51H457.5z"/>
		<path d="M533.9,330V534H330.1V330H533.9z M508.4,508.5V355.5H355.6v152.9H508.4z"/>
		<path d="M584.9,279.1v305.8H279.1V279.1H584.9z M559.4,559.4V304.6H304.6v254.9H559.4z"/>
		<path d="M635.9,228.1v407.8H228.1V228.1H635.9z M610.4,610.4V253.6H253.6v356.8H610.4z"/>
		<path d="M686.8,177.1v509.8H177.1V177.1H686.8z M661.3,661.4V202.6H202.6v458.8H661.3z"/>
		<path d="M737.8,126.1v611.7H126.2V126.1H737.8z M712.3,712.4V151.6H151.7v560.7H712.3z"/>
		<rect x="406.5" y="406.5" fill="#666766" width="50.9" height="51"/>
		<path fill="#666766" d="M508.4,355.5v152.9H355.6V355.5H508.4z M482.9,483V381H381.1V483H482.9z"/>
		<path fill="#666766" d="M559.4,304.6v254.9H304.6V304.6H559.4z M533.9,534V330H330.1V534H533.9z"/>
		<path fill="#666766" d="M610.4,253.6v356.8H253.6V253.6H610.4z M584.9,584.9V279.1H279.1v305.8H584.9z"/>
		<path fill="#666766" d="M661.3,202.6v458.8H202.6V202.6H661.3z M635.9,635.9V228.1H228.1v407.8H635.9z"/>
		<path fill="#666766" d="M712.3,151.6v560.7H151.7V151.6H712.3z M686.8,686.9V177.1H177.1v509.8H686.8z"/>
	</g>
	<g>
		<rect x="126.2" y="126.1" fill="none" stroke="#000000" stroke-width="3" stroke-miterlimit="10" width="611.6" height="611.7"/>
		<rect x="202.6" y="202.6" fill="none" stroke="#000000" stroke-miterlimit="10" width="458.7" height="458.8"/>
		<rect x="228.1" y="228.1" fill="none" stroke="#000000" stroke-miterlimit="10" width="407.7" height="407.8"/>
		<rect x="253.6" y="253.6" fill="none" stroke="#000000" stroke-miterlimit="10" width="356.8" height="356.8"/>
		<rect x="330.1" y="330" fill="none" stroke="#000000" stroke-miterlimit="10" width="203.8" height="203.9"/>
		<rect x="355.6" y="355.5" fill="none" stroke="#000000" stroke-miterlimit="10" width="152.9" height="152.9"/>
		<rect x="381.1" y="381" fill="none" stroke="#000000" stroke-miterlimit="10" width="101.9" height="101.9"/>
		<rect x="406.5" y="406.5" fill="none" stroke="#000000" stroke-miterlimit="10" width="50.9" height="51"/>
		<rect x="177.1" y="177.1" fill="none" stroke="#000000" stroke-miterlimit="10" width="509.7" height="509.8"/>
		<rect x="304.6" y="304.6" fill="none" stroke="#000000" stroke-miterlimit="10" width="254.8" height="254.9"/>
		<rect x="151.7" y="151.6" fill="none" stroke="#000000" stroke-miterlimit="10" width="560.7" height="560.7"/>
		<rect x="279.1" y="279.1" fill="none" stroke="#000000" stroke-miterlimit="10" width="305.8" height="305.8"/>
	</g>
</g>
</svg>
