<?xml version="1.0" encoding="UTF-8" standalone="no"?>
<svg width="1340px" height="1340px" viewBox="0 0 1340 1340" version="1.1" xmlns="http://www.w3.org/2000/svg" xmlns:xlink="http://www.w3.org/1999/xlink" xmlns:sketch="http://www.bohemiancoding.com/sketch/ns">
    <!-- Generator: Sketch 3.2.2 (9983) - http://www.bohemiancoding.com/sketch -->
    <title>Untitled</title>
    <desc>Created with Sketch.</desc>
    <defs>
        <rect id="path-1" x="0" y="0" width="1340" height="1340"></rect>
    </defs>
    <g id="Page-1" stroke="none" stroke-width="1" fill="none" fill-rule="evenodd" sketch:type="MSPage">
        <mask id="mask-2" sketch:name="Rectangle 1" fill="white">
            <use xlink:href="#path-1"></use>
        </mask>
        <use id="Rectangle-1" sketch:type="MSShapeGroup" xlink:href="#path-1"></use>
        <g id="Group-+-Group-3" sketch:type="MSLayerGroup" mask="url(#mask-2)">
            <g transform="translate(-1393.000000, -225.000000)" sketch:type="MSShapeGroup">
                <path d="M1548.23979,1823.12711 C1445.36515,1789.90094 801.337343,1934.34731 1393.37897,1630.48809 C1404.82071,1672.13324 1415.25375,1674.85019 1423.01299,1615.42532 C1489.1727,1582.10565 1569.17483,1543.76881 1665.05432,1499.69805 C1674.20789,1495.49063 1683.17966,1491.30664 1691.97213,1487.14611 L1691.97213,1487.14611 C1795.79904,1606.87302 1875.21642,1731.59767 1933.93634,1855.52925 C1912.96165,1873.58973 1892.43308,1891.35699 1872.5781,1908.63221 C1777.69118,1759.16364 1646.16493,1662.70797 1548.23979,1823.12711 L1548.23979,1823.12711 Z M1508.4287,1908.48777 C1324.37836,2112.66626 1018.66419,2158.79957 835.440861,2035.21388 C634.509315,1899.68384 -239.184521,1224.68498 63.4076852,1395.8831 C583.810486,1690.3123 1104.08031,1631.55664 1365.8237,1474.97361 C1337.10882,1264.65252 1309.98347,934.237197 1307.22946,801.309771 C1080.90835,630.549366 814.498429,95.7182288 1659.82633,427.229282 C1754.20233,393.815102 1862.15884,373.9268 1976.84733,373.9268 C2028.25068,373.9268 1951.04875,442.272768 1870.8027,514.312202 C1944.73122,544.592929 2009.12717,570.050544 2065,591.204822 C2120.87292,570.05051 2185.26897,544.592853 2259.19761,514.312069 C2178.95124,442.272767 2101.74932,373.9268 2153.15267,373.9268 C2267.84116,373.9268 2375.79767,393.815102 2470.17367,427.229282 C3315.50158,95.7182168 3049.09165,630.549364 2822.77055,801.309729 C2820.01652,934.237293 2792.89117,1264.65259 2764.1763,1474.97364 L2764.1763,1474.97361 C3025.91969,1631.55664 3546.18951,1690.3123 4066.59231,1395.8831 C4369.18452,1224.68498 3495.49069,1899.68384 3294.55914,2035.21388 C3111.3358,2158.79958 2805.62161,2112.66626 2621.5713,1908.48778 C2649.31955,1984.58746 2672.61132,2089.88547 2689.15631,2231.02907 C2835.3265,3477.99182 2904.07587,2336.539 2984.40226,2439.35208 C3175.47483,2683.91383 3133.08546,3036.30568 2942.09747,3185.52185 C2793.60226,3301.53902 2209.26999,3703.5741 2077.08419,3766.32942 C2082.99337,3775.45617 2078.26876,3776.72529 2065,3771.60825 C2051.73124,3776.72529 2047.00663,3775.45617 2052.91581,3766.32942 C1920.73001,3703.5741 1336.39774,3301.53902 1187.90253,3185.52185 C996.914537,3036.30568 954.525168,2683.91383 1145.59774,2439.35208 C1225.92413,2336.539 1294.6735,3477.99182 1440.84369,2231.02907 C1457.38868,2089.88547 1480.68045,1984.58746 1508.4287,1908.48778 L1508.4287,1908.48777 Z M2064.99999,3751.77153 C2072.25594,3744.05346 2082.33299,3734.25786 2095.4864,3722.20496 C2180.62762,3644.18728 2253.23758,3562.10316 2314.49068,3478.29158 C2232.86519,3506.16796 2143.18814,3443.19524 2065,3204.81081 C1986.81186,3443.19524 1897.13482,3506.16797 1815.50932,3478.29158 C1876.76242,3562.10317 1949.37238,3644.18728 2034.5136,3722.20496 C2047.66701,3734.25785 2057.74404,3744.05345 2065,3751.77152 L2064.99999,3751.77153 Z M1566.76627,2939.32942 C1574.95926,2873.43986 1611.20445,2847.15419 1685.75956,2904.86339 C1795.92393,2990.13585 1901.35246,2955.98995 1974.185,2845.88668 C1744.07975,1910.54276 1785.33553,2931.85231 1699.44466,2842.90971 C1619.13142,2759.74292 1569.47575,2658.30707 1547.79504,2555.05123 C1530.67043,2664.13212 1534.81032,2796.57425 1566.76627,2939.32942 L1566.76627,2939.32942 Z M2257.4219,1908.6322 C2352.30883,1759.16364 2483.83507,1662.70797 2581.76021,1823.12711 C2684.63486,1789.90094 3328.66274,1934.34733 2736.62091,1630.48803 C2725.17929,1672.13324 2714.74625,1674.85019 2706.98702,1615.42534 L2706.98701,1615.42532 C2640.8273,1582.10565 2560.82517,1543.76881 2464.94568,1499.69805 C2455.79211,1495.49063 2446.82034,1491.30664 2438.02787,1487.14611 C2334.20096,1606.87302 2254.78358,1731.59767 2196.06356,1855.52916 C2217.03828,1873.58967 2237.56689,1891.35697 2257.4219,1908.63221 L2257.4219,1908.6322 L2257.4219,1908.6322 Z M2582.20496,2555.05123 C2599.32957,2664.13212 2595.18968,2796.57425 2563.23373,2939.32942 L2563.23373,2939.32942 C2555.04074,2873.43986 2518.79555,2847.15419 2444.24044,2904.86339 C2334.07607,2990.13585 2228.64754,2955.98995 2155.815,2845.88668 C2385.92025,1910.54276 2344.66447,2931.85231 2430.55534,2842.90971 C2510.86858,2759.74292 2560.52425,2658.30707 2582.20496,2555.05123 L2582.20496,2555.05123 L2582.20496,2555.05123 Z M2065,2567.46338 C2055.68027,2489.48088 2055.00628,2402.92227 2065,2310.94175 C2074.99372,2402.92227 2074.31973,2489.48089 2065,2567.46338 L2065,2567.46338 L2065,2567.46338 Z M1727.04512,1470.20862 C1953.35212,1358.61102 2049.12372,1264.47406 2065,1188.69169 C2080.87628,1264.47406 2176.64788,1358.61103 2402.95489,1470.20863 C2321.76919,1530.56103 2193.63975,1635.29151 2065,1743.81887 C1936.36024,1635.2915 1808.23081,1530.56103 1727.04511,1470.20862 L1727.04512,1470.20862 L1727.04512,1470.20862 Z M2387.83406,970.544613 C2288.52066,871.983857 2176.07305,793.905577 2064.99982,738.327097 L2065,738.327187 C1953.92683,793.905661 1841.47928,871.983911 1742.16577,970.544587 C1893.16919,991.943183 2044.23976,1050.471 2065,1143.82648 C2085.76023,1050.47103 2236.8307,991.943223 2387.83408,970.54461 L2387.83406,970.544613 L2387.83406,970.544613 Z M2590.45173,1239.60766 C2616.20902,1287.42652 2638.62123,1337.82297 2656.95753,1390.69539 C2612.19538,1342.65206 2588.43981,1290.72115 2590.45172,1239.60765 L2590.45173,1239.60766 L2590.45173,1239.60766 Z M1861.50249,660.877287 C1820.98033,650.476622 1782.0566,643.707173 1745.59797,640.689443 C1721.13136,678.685164 1741.45261,694.844313 1861.5025,660.877289 L1861.50249,660.877287 L1861.50249,660.877287 Z M2268.4975,660.877289 C2388.54738,694.844311 2408.86864,678.685166 2384.40204,640.689449 C2347.9434,643.707173 2309.01967,650.476623 2268.4975,660.877289 L2268.4975,660.877289 L2268.4975,660.877289 Z M1473.04247,1390.69541 C1517.80462,1342.65206 1541.56019,1290.72115 1539.54828,1239.60765 C1513.79097,1287.42652 1491.37877,1337.82298 1473.04247,1390.69541 L1473.04247,1390.69541 L1473.04247,1390.69541 Z" id="Oval-4" fill="#58FFDA" transform="translate(2065.000000, 2047.797365) scale(-1, 1) translate(-2065.000000, -2047.797365) "></path>
                <path d="M1548.23979,1503.12711 C1445.36515,1469.90094 801.337343,1614.34731 1393.37897,1310.48809 C1404.82071,1352.13324 1415.25375,1354.85019 1423.01299,1295.42532 C1489.1727,1262.10565 1569.17483,1223.76881 1665.05432,1179.69805 C1674.20789,1175.49063 1683.17966,1171.30664 1691.97213,1167.14611 L1691.97213,1167.14611 C1795.79904,1286.87302 1875.21642,1411.59767 1933.93634,1535.52925 C1912.96165,1553.58973 1892.43308,1571.35699 1872.5781,1588.63221 C1777.69118,1439.16364 1646.16493,1342.70797 1548.23979,1503.12711 L1548.23979,1503.12711 Z M1508.4287,1588.48777 C1324.37836,1792.66626 1018.66419,1838.79957 835.440861,1715.21388 C634.509315,1579.68384 -239.184521,904.684981 63.4076852,1075.8831 C583.810486,1370.3123 1104.08031,1311.55664 1365.8237,1154.97361 C1337.10882,944.652524 1309.98347,614.237197 1307.22946,481.309771 C1080.90835,310.549366 814.498429,-224.281771 1659.82633,107.229282 C1754.20233,73.8151019 1862.15884,53.9268003 1976.84733,53.9268003 C2028.25068,53.9268003 1951.04875,122.272768 1870.8027,194.312202 C1944.73122,224.592929 2009.12717,250.050544 2065,271.204822 C2120.87292,250.05051 2185.26897,224.592853 2259.19761,194.312069 C2178.95124,122.272767 2101.74932,53.9268003 2153.15267,53.9268003 C2267.84116,53.9268003 2375.79767,73.8151019 2470.17367,107.229282 C3315.50158,-224.281783 3049.09165,310.549364 2822.77055,481.309729 C2820.01652,614.237293 2792.89117,944.652589 2764.1763,1154.97364 L2764.1763,1154.97361 C3025.91969,1311.55664 3546.18951,1370.3123 4066.59231,1075.8831 C4369.18452,904.684981 3495.49069,1579.68384 3294.55914,1715.21388 C3111.3358,1838.79958 2805.62161,1792.66626 2621.5713,1588.48778 C2649.31955,1664.58746 2672.61132,1769.88547 2689.15631,1911.02907 C2835.3265,3157.99182 2904.07587,2016.539 2984.40226,2119.35208 C3175.47483,2363.91383 3133.08546,2716.30568 2942.09747,2865.52185 C2793.60226,2981.53902 2209.26999,3383.5741 2077.08419,3446.32942 C2082.99337,3455.45617 2078.26876,3456.72529 2065,3451.60825 C2051.73124,3456.72529 2047.00663,3455.45617 2052.91581,3446.32942 C1920.73001,3383.5741 1336.39774,2981.53902 1187.90253,2865.52185 C996.914537,2716.30568 954.525168,2363.91383 1145.59774,2119.35208 C1225.92413,2016.539 1294.6735,3157.99182 1440.84369,1911.02907 C1457.38868,1769.88547 1480.68045,1664.58746 1508.4287,1588.48778 L1508.4287,1588.48777 Z M2064.99999,3431.77153 C2072.25594,3424.05346 2082.33299,3414.25786 2095.4864,3402.20496 C2180.62762,3324.18728 2253.23758,3242.10316 2314.49068,3158.29158 C2232.86519,3186.16796 2143.18814,3123.19524 2065,2884.81081 C1986.81186,3123.19524 1897.13482,3186.16797 1815.50932,3158.29158 C1876.76242,3242.10317 1949.37238,3324.18728 2034.5136,3402.20496 C2047.66701,3414.25785 2057.74404,3424.05345 2065,3431.77152 L2064.99999,3431.77153 Z M1566.76627,2619.32942 C1574.95926,2553.43986 1611.20445,2527.15419 1685.75956,2584.86339 C1795.92393,2670.13585 1901.35246,2635.98995 1974.185,2525.88668 C1744.07975,1590.54276 1785.33553,2611.85231 1699.44466,2522.90971 C1619.13142,2439.74292 1569.47575,2338.30707 1547.79504,2235.05123 C1530.67043,2344.13212 1534.81032,2476.57425 1566.76627,2619.32942 L1566.76627,2619.32942 Z M2257.4219,1588.6322 C2352.30883,1439.16364 2483.83507,1342.70797 2581.76021,1503.12711 C2684.63486,1469.90094 3328.66274,1614.34733 2736.62091,1310.48803 C2725.17929,1352.13324 2714.74625,1354.85019 2706.98702,1295.42534 L2706.98701,1295.42532 C2640.8273,1262.10565 2560.82517,1223.76881 2464.94568,1179.69805 C2455.79211,1175.49063 2446.82034,1171.30664 2438.02787,1167.14611 C2334.20096,1286.87302 2254.78358,1411.59767 2196.06356,1535.52916 C2217.03828,1553.58967 2237.56689,1571.35697 2257.4219,1588.63221 L2257.4219,1588.6322 L2257.4219,1588.6322 Z M2582.20496,2235.05123 C2599.32957,2344.13212 2595.18968,2476.57425 2563.23373,2619.32942 L2563.23373,2619.32942 C2555.04074,2553.43986 2518.79555,2527.15419 2444.24044,2584.86339 C2334.07607,2670.13585 2228.64754,2635.98995 2155.815,2525.88668 C2385.92025,1590.54276 2344.66447,2611.85231 2430.55534,2522.90971 C2510.86858,2439.74292 2560.52425,2338.30707 2582.20496,2235.05123 L2582.20496,2235.05123 L2582.20496,2235.05123 Z M2065,2247.46338 C2055.68027,2169.48088 2055.00628,2082.92227 2065,1990.94175 C2074.99372,2082.92227 2074.31973,2169.48089 2065,2247.46338 L2065,2247.46338 L2065,2247.46338 Z M1727.04512,1150.20862 C1953.35212,1038.61102 2049.12372,944.474064 2065,868.691694 C2080.87628,944.474064 2176.64788,1038.61103 2402.95489,1150.20863 C2321.76919,1210.56103 2193.63975,1315.29151 2065,1423.81887 C1936.36024,1315.2915 1808.23081,1210.56103 1727.04511,1150.20862 L1727.04512,1150.20862 L1727.04512,1150.20862 Z M2387.83406,650.544613 C2288.52066,551.983857 2176.07305,473.905577 2064.99982,418.327097 L2065,418.327187 C1953.92683,473.905661 1841.47928,551.983911 1742.16577,650.544587 C1893.16919,671.943183 2044.23976,730.471 2065,823.826478 C2085.76023,730.471033 2236.8307,671.943223 2387.83408,650.54461 L2387.83406,650.544613 L2387.83406,650.544613 Z M2590.45173,919.607656 C2616.20902,967.42652 2638.62123,1017.82297 2656.95753,1070.69539 C2612.19538,1022.65206 2588.43981,970.721147 2590.45172,919.607651 L2590.45173,919.607656 L2590.45173,919.607656 Z M1861.50249,340.877287 C1820.98033,330.476622 1782.0566,323.707173 1745.59797,320.689443 C1721.13136,358.685164 1741.45261,374.844313 1861.5025,340.877289 L1861.50249,340.877287 L1861.50249,340.877287 Z M2268.4975,340.877289 C2388.54738,374.844311 2408.86864,358.685166 2384.40204,320.689449 C2347.9434,323.707173 2309.01967,330.476623 2268.4975,340.877289 L2268.4975,340.877289 L2268.4975,340.877289 Z M1473.04247,1070.69541 C1517.80462,1022.65206 1541.56019,970.721147 1539.54828,919.607651 C1513.79097,967.426523 1491.37877,1017.82298 1473.04247,1070.69541 L1473.04247,1070.69541 L1473.04247,1070.69541 Z" id="Oval-1" fill="#000000" transform="translate(2065.000000, 1727.797365) scale(1, -1) translate(-2065.000000, -1727.797365) "></path>
                <path d="M1548.23979,1823.12711 C1445.36515,1789.90094 801.337343,1934.34731 1393.37897,1630.48809 C1404.82071,1672.13324 1415.25375,1674.85019 1423.01299,1615.42532 C1489.1727,1582.10565 1569.17483,1543.76881 1665.05432,1499.69805 C1674.20789,1495.49063 1683.17966,1491.30664 1691.97213,1487.14611 L1691.97213,1487.14611 C1795.79904,1606.87302 1875.21642,1731.59767 1933.93634,1855.52925 C1912.96165,1873.58973 1892.43308,1891.35699 1872.5781,1908.63221 C1777.69118,1759.16364 1646.16493,1662.70797 1548.23979,1823.12711 L1548.23979,1823.12711 Z M1508.4287,1908.48777 C1324.37836,2112.66626 1018.66419,2158.79957 835.440861,2035.21388 C634.509315,1899.68384 -239.184521,1224.68498 63.4076852,1395.8831 C583.810486,1690.3123 1104.08031,1631.55664 1365.8237,1474.97361 C1337.10882,1264.65252 1309.98347,934.237197 1307.22946,801.309771 C1080.90835,630.549366 814.498429,95.7182288 1659.82633,427.229282 C1754.20233,393.815102 1862.15884,373.9268 1976.84733,373.9268 C2028.25068,373.9268 1951.04875,442.272768 1870.8027,514.312202 C1944.73122,544.592929 2009.12717,570.050544 2065,591.204822 C2120.87292,570.05051 2185.26897,544.592853 2259.19761,514.312069 C2178.95124,442.272767 2101.74932,373.9268 2153.15267,373.9268 C2267.84116,373.9268 2375.79767,393.815102 2470.17367,427.229282 C3315.50158,95.7182168 3049.09165,630.549364 2822.77055,801.309729 C2820.01652,934.237293 2792.89117,1264.65259 2764.1763,1474.97364 L2764.1763,1474.97361 C3025.91969,1631.55664 3546.18951,1690.3123 4066.59231,1395.8831 C4369.18452,1224.68498 3495.49069,1899.68384 3294.55914,2035.21388 C3111.3358,2158.79958 2805.62161,2112.66626 2621.5713,1908.48778 C2649.31955,1984.58746 2672.61132,2089.88547 2689.15631,2231.02907 C2835.3265,3477.99182 2904.07587,2336.539 2984.40226,2439.35208 C3175.47483,2683.91383 3133.08546,3036.30568 2942.09747,3185.52185 C2793.60226,3301.53902 2209.26999,3703.5741 2077.08419,3766.32942 C2082.99337,3775.45617 2078.26876,3776.72529 2065,3771.60825 C2051.73124,3776.72529 2047.00663,3775.45617 2052.91581,3766.32942 C1920.73001,3703.5741 1336.39774,3301.53902 1187.90253,3185.52185 C996.914537,3036.30568 954.525168,2683.91383 1145.59774,2439.35208 C1225.92413,2336.539 1294.6735,3477.99182 1440.84369,2231.02907 C1457.38868,2089.88547 1480.68045,1984.58746 1508.4287,1908.48778 L1508.4287,1908.48777 Z M2064.99999,3751.77153 C2072.25594,3744.05346 2082.33299,3734.25786 2095.4864,3722.20496 C2180.62762,3644.18728 2253.23758,3562.10316 2314.49068,3478.29158 C2232.86519,3506.16796 2143.18814,3443.19524 2065,3204.81081 C1986.81186,3443.19524 1897.13482,3506.16797 1815.50932,3478.29158 C1876.76242,3562.10317 1949.37238,3644.18728 2034.5136,3722.20496 C2047.66701,3734.25785 2057.74404,3744.05345 2065,3751.77152 L2064.99999,3751.77153 Z M1566.76627,2939.32942 C1574.95926,2873.43986 1611.20445,2847.15419 1685.75956,2904.86339 C1795.92393,2990.13585 1901.35246,2955.98995 1974.185,2845.88668 C1744.07975,1910.54276 1785.33553,2931.85231 1699.44466,2842.90971 C1619.13142,2759.74292 1569.47575,2658.30707 1547.79504,2555.05123 C1530.67043,2664.13212 1534.81032,2796.57425 1566.76627,2939.32942 L1566.76627,2939.32942 Z M2257.4219,1908.6322 C2352.30883,1759.16364 2483.83507,1662.70797 2581.76021,1823.12711 C2684.63486,1789.90094 3328.66274,1934.34733 2736.62091,1630.48803 C2725.17929,1672.13324 2714.74625,1674.85019 2706.98702,1615.42534 L2706.98701,1615.42532 C2640.8273,1582.10565 2560.82517,1543.76881 2464.94568,1499.69805 C2455.79211,1495.49063 2446.82034,1491.30664 2438.02787,1487.14611 C2334.20096,1606.87302 2254.78358,1731.59767 2196.06356,1855.52916 C2217.03828,1873.58967 2237.56689,1891.35697 2257.4219,1908.63221 L2257.4219,1908.6322 L2257.4219,1908.6322 Z M2582.20496,2555.05123 C2599.32957,2664.13212 2595.18968,2796.57425 2563.23373,2939.32942 L2563.23373,2939.32942 C2555.04074,2873.43986 2518.79555,2847.15419 2444.24044,2904.86339 C2334.07607,2990.13585 2228.64754,2955.98995 2155.815,2845.88668 C2385.92025,1910.54276 2344.66447,2931.85231 2430.55534,2842.90971 C2510.86858,2759.74292 2560.52425,2658.30707 2582.20496,2555.05123 L2582.20496,2555.05123 L2582.20496,2555.05123 Z M2065,2567.46338 C2055.68027,2489.48088 2055.00628,2402.92227 2065,2310.94175 C2074.99372,2402.92227 2074.31973,2489.48089 2065,2567.46338 L2065,2567.46338 L2065,2567.46338 Z M1727.04512,1470.20862 C1953.35212,1358.61102 2049.12372,1264.47406 2065,1188.69169 C2080.87628,1264.47406 2176.64788,1358.61103 2402.95489,1470.20863 C2321.76919,1530.56103 2193.63975,1635.29151 2065,1743.81887 C1936.36024,1635.2915 1808.23081,1530.56103 1727.04511,1470.20862 L1727.04512,1470.20862 L1727.04512,1470.20862 Z M2387.83406,970.544613 C2288.52066,871.983857 2176.07305,793.905577 2064.99982,738.327097 L2065,738.327187 C1953.92683,793.905661 1841.47928,871.983911 1742.16577,970.544587 C1893.16919,991.943183 2044.23976,1050.471 2065,1143.82648 C2085.76023,1050.47103 2236.8307,991.943223 2387.83408,970.54461 L2387.83406,970.544613 L2387.83406,970.544613 Z M2590.45173,1239.60766 C2616.20902,1287.42652 2638.62123,1337.82297 2656.95753,1390.69539 C2612.19538,1342.65206 2588.43981,1290.72115 2590.45172,1239.60765 L2590.45173,1239.60766 L2590.45173,1239.60766 Z M1861.50249,660.877287 C1820.98033,650.476622 1782.0566,643.707173 1745.59797,640.689443 C1721.13136,678.685164 1741.45261,694.844313 1861.5025,660.877289 L1861.50249,660.877287 L1861.50249,660.877287 Z M2268.4975,660.877289 C2388.54738,694.844311 2408.86864,678.685166 2384.40204,640.689449 C2347.9434,643.707173 2309.01967,650.476623 2268.4975,660.877289 L2268.4975,660.877289 L2268.4975,660.877289 Z M1473.04247,1390.69541 C1517.80462,1342.65206 1541.56019,1290.72115 1539.54828,1239.60765 C1513.79097,1287.42652 1491.37877,1337.82298 1473.04247,1390.69541 L1473.04247,1390.69541 L1473.04247,1390.69541 Z" id="Oval-2" fill-opacity="0.6" fill="#58FFDA" transform="translate(2065.000000, 2047.797365) scale(-1, 1) translate(-2065.000000, -2047.797365) "></path>
                <path d="M1548.23979,1823.12711 C1445.36515,1789.90094 801.337343,1934.34731 1393.37897,1630.48809 C1404.82071,1672.13324 1415.25375,1674.85019 1423.01299,1615.42532 C1489.1727,1582.10565 1569.17483,1543.76881 1665.05432,1499.69805 C1674.20789,1495.49063 1683.17966,1491.30664 1691.97213,1487.14611 L1691.97213,1487.14611 C1795.79904,1606.87302 1875.21642,1731.59767 1933.93634,1855.52925 C1912.96165,1873.58973 1892.43308,1891.35699 1872.5781,1908.63221 C1777.69118,1759.16364 1646.16493,1662.70797 1548.23979,1823.12711 L1548.23979,1823.12711 Z M1508.4287,1908.48777 C1324.37836,2112.66626 1018.66419,2158.79957 835.440861,2035.21388 C634.509315,1899.68384 -239.184521,1224.68498 63.4076852,1395.8831 C583.810486,1690.3123 1104.08031,1631.55664 1365.8237,1474.97361 C1337.10882,1264.65252 1309.98347,934.237197 1307.22946,801.309771 C1080.90835,630.549366 814.498429,95.7182288 1659.82633,427.229282 C1754.20233,393.815102 1862.15884,373.9268 1976.84733,373.9268 C2028.25068,373.9268 1951.04875,442.272768 1870.8027,514.312202 C1944.73122,544.592929 2009.12717,570.050544 2065,591.204822 C2120.87292,570.05051 2185.26897,544.592853 2259.19761,514.312069 C2178.95124,442.272767 2101.74932,373.9268 2153.15267,373.9268 C2267.84116,373.9268 2375.79767,393.815102 2470.17367,427.229282 C3315.50158,95.7182168 3049.09165,630.549364 2822.77055,801.309729 C2820.01652,934.237293 2792.89117,1264.65259 2764.1763,1474.97364 L2764.1763,1474.97361 C3025.91969,1631.55664 3546.18951,1690.3123 4066.59231,1395.8831 C4369.18452,1224.68498 3495.49069,1899.68384 3294.55914,2035.21388 C3111.3358,2158.79958 2805.62161,2112.66626 2621.5713,1908.48778 C2649.31955,1984.58746 2672.61132,2089.88547 2689.15631,2231.02907 C2835.3265,3477.99182 2904.07587,2336.539 2984.40226,2439.35208 C3175.47483,2683.91383 3133.08546,3036.30568 2942.09747,3185.52185 C2793.60226,3301.53902 2209.26999,3703.5741 2077.08419,3766.32942 C2082.99337,3775.45617 2078.26876,3776.72529 2065,3771.60825 C2051.73124,3776.72529 2047.00663,3775.45617 2052.91581,3766.32942 C1920.73001,3703.5741 1336.39774,3301.53902 1187.90253,3185.52185 C996.914537,3036.30568 954.525168,2683.91383 1145.59774,2439.35208 C1225.92413,2336.539 1294.6735,3477.99182 1440.84369,2231.02907 C1457.38868,2089.88547 1480.68045,1984.58746 1508.4287,1908.48778 L1508.4287,1908.48777 Z M2064.99999,3751.77153 C2072.25594,3744.05346 2082.33299,3734.25786 2095.4864,3722.20496 C2180.62762,3644.18728 2253.23758,3562.10316 2314.49068,3478.29158 C2232.86519,3506.16796 2143.18814,3443.19524 2065,3204.81081 C1986.81186,3443.19524 1897.13482,3506.16797 1815.50932,3478.29158 C1876.76242,3562.10317 1949.37238,3644.18728 2034.5136,3722.20496 C2047.66701,3734.25785 2057.74404,3744.05345 2065,3751.77152 L2064.99999,3751.77153 Z M1566.76627,2939.32942 C1574.95926,2873.43986 1611.20445,2847.15419 1685.75956,2904.86339 C1795.92393,2990.13585 1901.35246,2955.98995 1974.185,2845.88668 C1744.07975,1910.54276 1785.33553,2931.85231 1699.44466,2842.90971 C1619.13142,2759.74292 1569.47575,2658.30707 1547.79504,2555.05123 C1530.67043,2664.13212 1534.81032,2796.57425 1566.76627,2939.32942 L1566.76627,2939.32942 Z M2257.4219,1908.6322 C2352.30883,1759.16364 2483.83507,1662.70797 2581.76021,1823.12711 C2684.63486,1789.90094 3328.66274,1934.34733 2736.62091,1630.48803 C2725.17929,1672.13324 2714.74625,1674.85019 2706.98702,1615.42534 L2706.98701,1615.42532 C2640.8273,1582.10565 2560.82517,1543.76881 2464.94568,1499.69805 C2455.79211,1495.49063 2446.82034,1491.30664 2438.02787,1487.14611 C2334.20096,1606.87302 2254.78358,1731.59767 2196.06356,1855.52916 C2217.03828,1873.58967 2237.56689,1891.35697 2257.4219,1908.63221 L2257.4219,1908.6322 L2257.4219,1908.6322 Z M2582.20496,2555.05123 C2599.32957,2664.13212 2595.18968,2796.57425 2563.23373,2939.32942 L2563.23373,2939.32942 C2555.04074,2873.43986 2518.79555,2847.15419 2444.24044,2904.86339 C2334.07607,2990.13585 2228.64754,2955.98995 2155.815,2845.88668 C2385.92025,1910.54276 2344.66447,2931.85231 2430.55534,2842.90971 C2510.86858,2759.74292 2560.52425,2658.30707 2582.20496,2555.05123 L2582.20496,2555.05123 L2582.20496,2555.05123 Z M2065,2567.46338 C2055.68027,2489.48088 2055.00628,2402.92227 2065,2310.94175 C2074.99372,2402.92227 2074.31973,2489.48089 2065,2567.46338 L2065,2567.46338 L2065,2567.46338 Z M1727.04512,1470.20862 C1953.35212,1358.61102 2049.12372,1264.47406 2065,1188.69169 C2080.87628,1264.47406 2176.64788,1358.61103 2402.95489,1470.20863 C2321.76919,1530.56103 2193.63975,1635.29151 2065,1743.81887 C1936.36024,1635.2915 1808.23081,1530.56103 1727.04511,1470.20862 L1727.04512,1470.20862 L1727.04512,1470.20862 Z M2387.83406,970.544613 C2288.52066,871.983857 2176.07305,793.905577 2064.99982,738.327097 L2065,738.327187 C1953.92683,793.905661 1841.47928,871.983911 1742.16577,970.544587 C1893.16919,991.943183 2044.23976,1050.471 2065,1143.82648 C2085.76023,1050.47103 2236.8307,991.943223 2387.83408,970.54461 L2387.83406,970.544613 L2387.83406,970.544613 Z M2590.45173,1239.60766 C2616.20902,1287.42652 2638.62123,1337.82297 2656.95753,1390.69539 C2612.19538,1342.65206 2588.43981,1290.72115 2590.45172,1239.60765 L2590.45173,1239.60766 L2590.45173,1239.60766 Z M1861.50249,660.877287 C1820.98033,650.476622 1782.0566,643.707173 1745.59797,640.689443 C1721.13136,678.685164 1741.45261,694.844313 1861.5025,660.877289 L1861.50249,660.877287 L1861.50249,660.877287 Z M2268.4975,660.877289 C2388.54738,694.844311 2408.86864,678.685166 2384.40204,640.689449 C2347.9434,643.707173 2309.01967,650.476623 2268.4975,660.877289 L2268.4975,660.877289 L2268.4975,660.877289 Z M1473.04247,1390.69541 C1517.80462,1342.65206 1541.56019,1290.72115 1539.54828,1239.60765 C1513.79097,1287.42652 1491.37877,1337.82298 1473.04247,1390.69541 L1473.04247,1390.69541 L1473.04247,1390.69541 Z" id="Oval-3" opacity="0.702950093" fill="#FFFFFF" transform="translate(2065.000000, 2047.797365) scale(-1, -1) translate(-2065.000000, -2047.797365) "></path>
            </g>
        </g>
        <g id="Group" sketch:type="MSLayerGroup" mask="url(#mask-2)">
            <rect id="Rectangle-path" sketch:type="MSShapeGroup" x="0.769036954" y="0.703387458" width="1338.46193" height="1338.59323" rx="6"></rect>
            <rect id="Rectangle-path" sketch:type="MSShapeGroup" x="112.307531" y="112.241881" width="1115.38494" height="1115.51624" rx="6"></rect>
            <rect id="Rectangle-path" sketch:type="MSShapeGroup" x="223.867908" y="223.802258" width="892.264184" height="892.395483" rx="6"></rect>
            <rect id="Rectangle-path" sketch:type="MSShapeGroup" x="335.428285" y="335.362635" width="669.14343" height="669.274729" rx="6"></rect>
            <rect id="Rectangle-path" sketch:type="MSShapeGroup" x="446.966779" y="446.901129" width="446.066443" height="446.197742" rx="6"></rect>
            <rect id="Rectangle-path" sketch:type="MSShapeGroup" x="558.549039" y="558.461506" width="222.901922" height="223.076988" rx="6"></rect>
        </g>
        <g id="Group-2" sketch:type="MSLayerGroup" mask="url(#mask-2)" fill-opacity="0.25" fill="#68FFEB">
            <path d="M0.769036954,0.703387458 L1339.23096,0.703387458 L1339.23096,1339.29661 L0.769036954,1339.29661 L0.769036954,0.703387458 Z M56.5492255,56.483576 L1283.45077,56.483576 L1283.45077,1283.51642 L56.5492255,1283.51642 L56.5492255,56.483576 Z" id="Rectangle-path" sketch:type="MSShapeGroup"></path>
            <path d="M112.307531,112.241881 L1227.69247,112.241881 L1227.69247,1227.75812 L112.307531,1227.75812 L112.307531,112.241881 Z M168.109602,168.02207 L1171.8904,168.02207 L1171.8904,1171.97793 L168.109602,1171.97793 L168.109602,168.02207 Z" id="Rectangle-path" sketch:type="MSShapeGroup"></path>
            <path d="M223.867908,223.802258 L1116.13209,223.802258 L1116.13209,1116.19774 L223.867908,1116.19774 L223.867908,223.802258 Z M279.648096,279.560564 L1060.3519,279.560564 L1060.3519,1060.43944 L279.648096,1060.43944 L279.648096,279.560564 Z" id="Rectangle-path" sketch:type="MSShapeGroup"></path>
            <path d="M335.428285,335.362635 L1004.57172,335.362635 L1004.57172,1004.63736 L335.428285,1004.63736 L335.428285,335.362635 Z M391.18659,391.142824 L948.81341,391.142824 L948.81341,948.857176 L391.18659,948.857176 L391.18659,391.142824 Z" id="Rectangle-path" sketch:type="MSShapeGroup"></path>
            <path d="M446.966779,446.901129 L893.033221,446.901129 L893.033221,893.098871 L446.966779,893.098871 L446.966779,446.901129 Z M502.746967,502.681318 L837.253033,502.681318 L837.253033,837.318682 L502.746967,837.318682 L502.746967,502.681318 Z" id="Rectangle-path" sketch:type="MSShapeGroup"></path>
            <path d="M558.549039,558.461506 L781.450961,558.461506 L781.450961,781.538494 L558.549039,781.538494 L558.549039,558.461506 Z M614.263578,614.241695 L725.736422,614.241695 L725.736422,725.758305 L614.263578,725.758305 L614.263578,614.241695 Z" id="Rectangle-path" sketch:type="MSShapeGroup"></path>
        </g>
    </g>
</svg>